<?xml version="1.0" encoding="UTF-8" standalone="no"?>
<svg
   xmlns:dc="http://purl.org/dc/elements/1.1/"
   xmlns:cc="http://creativecommons.org/ns#"
   xmlns:rdf="http://www.w3.org/1999/02/22-rdf-syntax-ns#"
   xmlns:svg="http://www.w3.org/2000/svg"
   xmlns="http://www.w3.org/2000/svg"
   xmlns:sodipodi="http://sodipodi.sourceforge.net/DTD/sodipodi-0.dtd"
   xmlns:inkscape="http://www.inkscape.org/namespaces/inkscape"
   width="25.902725"
   height="22.489"
   viewBox="0 0 25.902725 22.489"
   fill="none"
   version="1.1"
   id="svg37"
   sodipodi:docname="favicon.svg"
   inkscape:version="1.0.2 (e86c870879, 2021-01-15, custom)">
  <metadata
     id="metadata41">
    <rdf:RDF>
      <cc:Work
         rdf:about="">
        <dc:format>image/svg+xml</dc:format>
        <dc:type
           rdf:resource="http://purl.org/dc/dcmitype/StillImage" />
        <dc:title></dc:title>
      </cc:Work>
    </rdf:RDF>
  </metadata>
  <sodipodi:namedview
     pagecolor="#ffffff"
     bordercolor="#666666"
     borderopacity="1"
     objecttolerance="10"
     gridtolerance="10"
     guidetolerance="10"
     inkscape:pageopacity="0"
     inkscape:pageshadow="2"
     inkscape:window-width="1366"
     inkscape:window-height="705"
     id="namedview39"
     showgrid="false"
     lock-margins="true"
     fit-margin-top="0"
     fit-margin-left="0"
     fit-margin-right="0"
     fit-margin-bottom="0"
     inkscape:zoom="2.230253"
     inkscape:cx="-131.7321"
     inkscape:cy="17.233326"
     inkscape:window-x="-8"
     inkscape:window-y="-8"
     inkscape:window-maximized="1"
     inkscape:current-layer="g30" />
  <g
     clip-path="url(#clip0)"
     id="g30"
     transform="translate(-158.157)">
    <path
       d="m 174.676,22.489 c -0.57,-3.5711 -1.095,-6.945 -1.654,-10.4613 l -0.898,0.734 c -2.001,1.7641 -4.301,3.1554 -6.792,4.1078 -0.392,0.1718 -0.82,0.2437 -1.246,0.2092 -0.427,-0.0344 -0.838,-0.174 -1.197,-0.4064 -1.544,-0.9859 -3.144,-1.906 -4.732,-2.8481 0.238,-0.3479 0.571,-0.6197 0.96,-0.7829 0.388,-0.1632 0.816,-0.2109 1.231,-0.1372 1.251,0.1333 2.51,0.1955 3.768,0.1862 0.395,-0.0062 0.778,-0.1365 1.096,-0.3725 4.381,-3.72439 8.763,-7.46343 13.145,-11.21707 1.138,-1.002276 2.613,-1.538191 4.129,-1.50072082892 1.359,0 1.928,0.89824482892 1.348,2.19084082892 -0.321,0.64804 -0.764,1.22822 -1.304,1.70885 -1.282,1.1721 -2.618,2.27848 -3.954,3.38485 -0.174,0.12755 -0.317,0.29194 -0.419,0.48135 -0.102,0.18941 -0.161,0.39912 -0.173,0.61407 -0.285,3.70253 -0.635,7.40503 -0.92,11.10753 -0.003,0.375 -0.097,0.7437 -0.274,1.074 -0.178,0.3303 -0.433,0.6122 -0.745,0.8211 -0.475,0.3447 -0.932,0.714 -1.369,1.1064 z"
       fill="#47585b"
       id="path26" />
    <path
       d="m 162.604,6.92306 c 1.019,-0.87634 1.731,-2.01557 3.374,-1.76363 1.643,0.25195 3.287,0.2629 5.017,0.3834 l 0.559,0.07668 c -1.249,1.09542 -2.388,2.01557 -3.538,2.96858 -0.066,0.04763 -0.141,0.08101 -0.22,0.09799 -0.079,0.01698 -0.161,0.01719 -0.24,6e-4 -1.534,-0.48198 -3.068,-0.97492 -4.59,-1.47882 -0.11,-0.03286 -0.186,-0.1424 -0.362,-0.2848 z"
       fill="#47585b"
       id="path28" />
  </g>
  <defs
     id="defs35">
    <clipPath
       id="clip0">
      <rect
         width="184.064"
         height="45.919998"
         fill="#ffffff"
         id="rect32"
         x="0"
         y="0" />
    </clipPath>
  </defs>
</svg>
